<svg width="15" height="18" viewBox="0 0 15 18" fill="none" xmlns="http://www.w3.org/2000/svg">
<path fill-rule="evenodd" clip-rule="evenodd" d="M9.56751 3.29891C10.094 2.58523 10.4932 1.57652 10.3488 0.546875C9.48825 0.60967 8.48237 1.18779 7.89544 1.94133C7.36042 2.62411 6.9207 3.6398 7.09244 4.62558C8.03321 4.65648 9.00418 4.06441 9.56751 3.29891Z" fill="white"/>
<path fill-rule="evenodd" clip-rule="evenodd" d="M14.217 12.985C13.8405 13.8662 13.6593 14.2599 13.1743 15.0403C12.4977 16.1298 11.5437 17.4864 10.3605 17.4963C9.31023 17.5083 9.03942 16.7737 7.61363 16.7826C6.18785 16.7906 5.89061 17.5103 4.83849 17.4993C3.65615 17.4883 2.75218 16.2643 2.07562 15.1749C0.182745 12.1308 -0.0163555 8.55745 1.15088 6.65665C1.98126 5.30705 3.29098 4.51762 4.52144 4.51762C5.7736 4.51762 6.56151 5.24325 7.59853 5.24325C8.60442 5.24325 9.21682 4.51562 10.6652 4.51562C11.7617 4.51562 12.9233 5.14657 13.7499 6.23502C11.0399 7.80391 11.4786 11.8916 14.217 12.985Z" fill="white"/>
</svg>
