<svg width="29" height="29" viewBox="0 0 29 29" fill="none" xmlns="http://www.w3.org/2000/svg">
<path d="M14.5 0.75C17.4717 0.75 19.8136 0.884457 21.6614 1.23997C23.5055 1.59476 24.8019 2.15957 25.7318 2.97931C27.5848 4.61265 28.25 7.49821 28.25 12.8889C28.25 16.3741 27.9414 19.0338 27.0466 20.8082C26.6097 21.6746 26.0415 22.3113 25.309 22.7384C24.5722 23.168 23.6154 23.4167 22.3545 23.4167C20.878 23.4167 19.8106 23.747 18.993 24.301C18.1889 24.8458 17.6957 25.5633 17.3031 26.1811C17.2454 26.2719 17.1903 26.3595 17.1373 26.4439C16.8075 26.9687 16.5541 27.3718 16.2032 27.6866C15.8459 28.0073 15.3612 28.25 14.5003 28.25C13.6395 28.25 13.1548 28.0072 12.7975 27.6865C12.4466 27.3717 12.1932 26.9686 11.8634 26.4439C11.8104 26.3595 11.7553 26.2719 11.6976 26.181C11.3049 25.5632 10.8117 24.8458 10.0076 24.301C9.18997 23.747 8.12262 23.4167 6.64613 23.4167C5.38913 23.4167 4.43408 23.161 3.69734 22.7225C2.96364 22.2858 2.3934 21.6362 1.95484 20.7589C1.05816 18.9654 0.75 16.3029 0.75 12.8889C0.75 7.56485 1.414 4.67497 3.27049 3.02475C4.20202 2.19673 5.49956 1.62109 7.34222 1.25708C9.18894 0.89226 11.5298 0.75 14.5 0.75Z" stroke="white" stroke-width="1.5" stroke-linecap="round" stroke-linejoin="round"/>
<circle cx="9.66683" cy="13.2923" r="1.20833" fill="white"/>
<circle cx="14.4998" cy="13.2923" r="1.20833" fill="white"/>
<ellipse cx="19.3333" cy="13.2923" rx="1.20833" ry="1.20833" fill="white"/>
</svg>
