<svg width="20" height="22" viewBox="0 0 20 22" fill="none" xmlns="http://www.w3.org/2000/svg">
<path d="M2.99696 10.002C2.99696 15.0645 10.5908 15.0645 10.5908 10.002" stroke="white" stroke-width="1.30435" stroke-linecap="round" stroke-linejoin="round"/>
<path d="M1.04328 14.266C1.00197 14.4714 0.959219 14.6839 0.914597 14.904C0.36125 18.0019 0.732699 19.3917 1.55818 20.0988C1.99263 20.471 2.62886 20.7275 3.5439 20.8837C4.45796 21.0398 5.58693 21.0861 6.95652 21.0861C8.3261 21.0861 9.45507 21.0398 10.3691 20.8837C11.2842 20.7275 11.9204 20.471 12.3549 20.0988C13.1803 19.3917 13.5518 18.0019 12.9984 14.904C12.9538 14.6839 12.9111 14.4714 12.8698 14.2661C12.6509 13.178 12.4725 12.2908 12.2699 11.5499C12.029 10.669 11.773 10.0737 11.4349 9.65183C10.8009 8.86067 9.70851 8.47741 6.95652 8.47741C4.20452 8.47741 3.11215 8.86067 2.47815 9.65183C2.14005 10.0737 1.88408 10.669 1.64316 11.5499C1.44054 12.2908 1.26211 13.1779 1.04328 14.266Z" stroke="white" stroke-width="1.30435" stroke-linecap="round" stroke-linejoin="round"/>
<path d="M16.5218 0.869565C16.5218 0.638942 16.4302 0.417764 16.2671 0.254689C16.1041 0.091614 15.8829 0 15.6523 0C15.4216 0 15.2005 0.091614 15.0374 0.254689C14.8743 0.417764 14.7827 0.638942 14.7827 0.869565V3.47826H12.174C11.9434 3.47826 11.7222 3.56987 11.5591 3.73295C11.3961 3.89602 11.3044 4.1172 11.3044 4.34783C11.3044 4.57845 11.3961 4.79963 11.5591 4.9627C11.7222 5.12578 11.9434 5.21739 12.174 5.21739H14.7827V7.82609C14.7827 8.05671 14.8743 8.27789 15.0374 8.44096C15.2005 8.60404 15.4216 8.69565 15.6523 8.69565C15.8829 8.69565 16.1041 8.60404 16.2671 8.44096C16.4302 8.27789 16.5218 8.05671 16.5218 7.82609V5.21739H19.1305C19.3612 5.21739 19.5823 5.12578 19.7454 4.9627C19.9085 4.79963 20.0001 4.57845 20.0001 4.34783C20.0001 4.1172 19.9085 3.89602 19.7454 3.73295C19.5823 3.56987 19.3612 3.47826 19.1305 3.47826H16.5218V0.869565Z" fill="white"/>
</svg>
