<svg width="17" height="17" viewBox="0 0 17 17" fill="none" xmlns="http://www.w3.org/2000/svg">
<path d="M16.5795 8.79878C16.5795 8.13506 16.5246 7.65071 16.4057 7.14844H8.67188V10.1442H13.2114C13.1199 10.8886 12.6257 12.0098 11.5274 12.7632L11.512 12.8635L13.9573 14.7199L14.1267 14.7365C15.6826 13.3283 16.5795 11.2564 16.5795 8.79878Z" fill="white"/>
<path d="M8.67203 16.6927C10.896 16.6927 12.7631 15.9751 14.1268 14.7373L11.5276 12.764C10.832 13.2394 9.89842 13.5713 8.67203 13.5713C6.49377 13.5713 4.645 12.1631 3.98596 10.2168L3.88936 10.2248L1.34673 12.1532L1.31348 12.2438C2.66802 14.8808 5.45035 16.6927 8.67203 16.6927Z" fill="white"/>
<path d="M3.98567 10.2165C3.81177 9.71422 3.71114 9.17602 3.71114 8.61995C3.71114 8.06381 3.81177 7.52567 3.97652 7.0234L3.97191 6.91642L1.39741 4.95703L1.31318 4.9963C0.754908 6.09057 0.43457 7.31939 0.43457 8.61995C0.43457 9.9205 0.754908 11.1493 1.31318 12.2435L3.98567 10.2165Z" fill="white"/>
<path d="M8.67203 3.66819C10.2188 3.66819 11.2621 4.32294 11.857 4.87011L14.1817 2.6457C12.754 1.34515 10.896 0.546875 8.67203 0.546875C5.45035 0.546875 2.66802 2.35867 1.31348 4.99563L3.97681 7.02273C4.645 5.07639 6.49377 3.66819 8.67203 3.66819Z" fill="white"/>
</svg>
