<svg width="33" height="27" viewBox="0 0 33 27" fill="none" xmlns="http://www.w3.org/2000/svg">
<path d="M30.2363 14.0499C33.4851 10.8451 33.4959 5.63847 30.2604 2.4205C27.025 -0.797464 21.7684 -0.808181 18.5196 2.39657L6.2583 14.4914C5.34999 15.3874 5.34697 16.8431 6.25154 17.7428L14.6925 26.138C15.5971 27.0377 17.0667 27.0407 17.975 26.1447L30.2363 14.0499Z" fill="#BC1529"/>
<path fill-rule="evenodd" clip-rule="evenodd" d="M2.41962 2.44558C-0.815955 5.66363 -0.805132 10.8704 2.44379 14.0752L14.7049 26.17C15.6132 27.066 17.0828 27.063 17.9874 26.1633L26.4287 17.7677C27.3333 16.868 27.3302 15.4123 26.4219 14.5164L14.1608 2.42164C10.9119 -0.783191 5.65519 -0.772473 2.41962 2.44558ZM6.78245 9.32271C8.1625 9.32271 9.28125 8.21459 9.28125 6.84765C9.28125 5.48071 8.1625 4.37259 6.78245 4.37259C5.4024 4.37259 4.28365 5.48071 4.28365 6.84765C4.28365 8.21459 5.4024 9.32271 6.78245 9.32271Z" fill="#DB2734"/>
</svg>
