<svg width="29" height="30" viewBox="0 0 29 30" fill="none" xmlns="http://www.w3.org/2000/svg">
<path d="M8.45866 8.25C8.45866 16.3056 20.542 16.3056 20.542 8.25" stroke="white" stroke-width="1.5" stroke-linecap="round" stroke-linejoin="round"/>
<path d="M1.57604 14.3083C1.48973 14.7374 1.40059 15.1807 1.30774 15.6386C0.151002 22.1093 0.85387 25.3325 2.8514 27.0436C3.87519 27.9206 5.32423 28.4828 7.28424 28.8175C9.24312 29.1521 11.6395 29.248 14.5 29.248C17.3605 29.248 19.7569 29.1521 21.7157 28.8175C23.6758 28.4828 25.1248 27.9206 26.1486 27.0436C28.1461 25.3325 28.849 22.1094 27.6922 15.6386C27.5994 15.1808 27.5103 14.7376 27.424 14.3085C26.9681 12.0413 26.5912 10.1671 26.1628 8.60091C25.6533 6.73796 25.093 5.40126 24.3101 4.42429C22.7928 2.5309 20.2358 1.74805 14.5 1.74805C8.76421 1.74805 6.20715 2.5309 4.68987 4.42429C3.90697 5.40126 3.34667 6.73796 2.83717 8.60092C2.40883 10.1671 2.03195 12.0412 1.57604 14.3083Z" stroke="white" stroke-width="1.5" stroke-linecap="round" stroke-linejoin="round"/>
</svg>
