<svg width="41" height="33" viewBox="0 0 41 33" fill="none" xmlns="http://www.w3.org/2000/svg">
<path d="M37.1501 17.0775C41.0785 13.0522 40.9395 6.66252 36.8396 2.80566C32.7397 -1.05119 26.2314 -0.914696 22.303 3.11054L7.78968 17.9816C6.74909 19.0478 6.78592 20.7404 7.87194 21.762L18.7862 32.0293C19.8722 33.0509 21.5962 33.0147 22.6368 31.9485L37.1501 17.0775Z" fill="#7630FA"/>
<path fill-rule="evenodd" clip-rule="evenodd" d="M3.22481 3.60966C-0.686696 7.65074 -0.520876 14.0398 3.59518 17.8801L18.8017 32.0677C19.892 33.085 21.6158 33.0418 22.652 31.9714L33.0647 21.2138C34.1008 20.1433 34.0568 18.4509 32.9665 17.4337L17.76 3.24604C13.6439 -0.594217 7.13631 -0.431416 3.22481 3.60966ZM9.38901 12.4263C11.3383 12.3815 12.8814 10.7938 12.8358 8.88006C12.7901 6.96632 11.1729 5.45126 9.22368 5.49609C7.27444 5.54091 5.73127 7.12864 5.77693 9.04238C5.82258 10.9561 7.43977 12.4712 9.38901 12.4263Z" fill="#A271FF"/>
</svg>
