<svg width="11" height="11" viewBox="0 0 11 11" fill="none" xmlns="http://www.w3.org/2000/svg">
<path d="M6.88403 4.0919H9.60394C10.375 4.0919 11 4.71694 11 5.48796C11 6.25899 10.375 6.88403 9.60394 6.88403H6.88403V9.57987C6.88403 10.3509 6.25899 10.9759 5.48796 10.9759C4.71694 10.9759 4.0919 10.3509 4.0919 9.57987V6.88403H1.39606C0.625038 6.88403 0 6.25899 0 5.48796C0 4.71694 0.625038 4.0919 1.39606 4.0919H4.0919V1.39606C4.0919 0.625038 4.71694 0 5.48796 0C6.25899 0 6.88403 0.625038 6.88403 1.39606V4.0919Z" fill="#4282FF"/>
</svg>
