<svg width="39" height="40" viewBox="0 0 39 40" fill="none" xmlns="http://www.w3.org/2000/svg">
<circle cx="19.5" cy="19.5" r="19.5" fill="#AFAFAF"/>
<path d="M22.9269 6.32422L9.9615 19.2896C9.31496 19.9361 9.77287 21.0416 10.6872 21.0416H16.1121L14.3309 32.6194C14.1801 33.5997 15.3696 34.2025 16.071 33.5012L29.0364 20.5358C29.6829 19.8892 29.225 18.7837 28.3107 18.7837H22.8858L24.667 7.206C24.8178 6.22563 23.6283 5.62284 22.9269 6.32422Z" fill="white"/>
<path d="M19.5 0.00194931C22.0608 0.00194931 24.5965 0.506332 26.9623 1.4863C29.3282 2.46627 31.4778 3.90263 33.2886 5.71337C35.0993 7.52411 36.5357 9.67377 37.5157 12.0396C38.4956 14.4055 39 16.9412 39 19.502C39 22.0627 38.4956 24.5984 37.5157 26.9643C36.5357 29.3301 35.0993 31.4798 33.2886 33.2905C31.4778 35.1013 29.3282 36.5376 26.9623 37.5176C24.5965 38.4976 22.0608 39.002 19.5 39.002L19.5 19.502L19.5 0.00194931Z" fill="#000001" fill-opacity="0.1"/>
<circle cx="19.5" cy="19.5" r="19.5" fill="#A271FF"/>
<path d="M22.9269 6.32227L9.9615 19.2876C9.31496 19.9342 9.77287 21.0397 10.6872 21.0397H16.1121L14.3309 32.6174C14.1801 33.5978 15.3696 34.2006 16.071 33.4992L29.0364 20.5338C29.6829 19.8873 29.225 18.7818 28.3107 18.7818H22.8858L24.667 7.20404C24.8178 6.22367 23.6283 5.62089 22.9269 6.32227Z" fill="white"/>
<path d="M19.5 0C22.0608 0 24.5965 0.504382 26.9623 1.48435C29.3282 2.46432 31.4778 3.90068 33.2886 5.71142C35.0993 7.52216 36.5357 9.67182 37.5157 12.0377C38.4956 14.4035 39 16.9392 39 19.5C39 22.0608 38.4956 24.5965 37.5157 26.9623C36.5357 29.3282 35.0993 31.4778 33.2886 33.2886C31.4778 35.0993 29.3282 36.5357 26.9623 37.5157C24.5965 38.4956 22.0608 39 19.5 39L19.5 19.5L19.5 0Z" fill="#000001" fill-opacity="0.1"/>
</svg>
