<svg width="46" height="46" viewBox="0 0 46 46" fill="none" xmlns="http://www.w3.org/2000/svg">
<circle cx="23.0968" cy="23.1588" r="21.9355" stroke="url(#paint0_linear_2721_1071)" stroke-width="1.29032"/>
<path fill-rule="evenodd" clip-rule="evenodd" d="M19.0276 16.4829L19.1823 16.5732C20.9381 17.598 23.1316 16.9129 24.1187 15.1845L24.1191 15.1838L24.1194 15.1832L24.1198 15.1826L24.1201 15.182L24.1204 15.1814L24.1208 15.1808L24.1211 15.1802L24.1215 15.1796L24.1218 15.179L24.1222 15.1784L24.1225 15.1778L24.1229 15.1772L24.1232 15.1766L24.1236 15.176L24.1239 15.1754L24.1242 15.1748L24.1246 15.1742L24.1249 15.1736L24.1253 15.173L24.1256 15.1724L24.126 15.1717L24.1263 15.1711L24.1267 15.1705L24.127 15.1699L24.1274 15.1693L24.1277 15.1687L24.1281 15.1681L24.1284 15.1675L24.1287 15.1669L24.1291 15.1663L24.1294 15.1657L24.1298 15.1651L24.1301 15.1645L24.1305 15.1639L24.1308 15.1632L24.1312 15.1626L24.1315 15.162L24.1319 15.1614L24.1322 15.1608L24.1326 15.1602L24.1329 15.1596L24.1333 15.159L24.1336 15.1584L24.134 15.1578L24.1343 15.1572L24.1346 15.1566L24.135 15.1559L24.1353 15.1553L24.1357 15.1547L24.136 15.1541L24.1364 15.1535L24.1367 15.1529L24.1371 15.1523L24.1374 15.1517L24.1378 15.1511L24.1381 15.1505L24.1385 15.1499L24.1388 15.1492L24.1392 15.1486L24.1395 15.148L24.1399 15.1474L24.1402 15.1468L24.1406 15.1462L24.1409 15.1456L24.1413 15.145L24.1416 15.1444L24.142 15.1437L24.1423 15.1431L24.1427 15.1425L24.143 15.1419L24.1434 15.1413L24.1437 15.1407L24.1441 15.1401L24.1444 15.1395L24.1448 15.1388L24.1451 15.1382L24.1455 15.1376L24.1458 15.137L24.1462 15.1364L24.1465 15.1358L24.1469 15.1352L24.1472 15.1346L24.1476 15.1339L24.1479 15.1333L24.1483 15.1327L24.1486 15.1321L24.149 15.1315L24.1493 15.1309L24.1497 15.1303L24.15 15.1297L24.1504 15.129L24.1507 15.1284L24.1511 15.1278L24.1514 15.1272L24.1518 15.1266L24.1521 15.126L24.1525 15.1254L24.1528 15.1247L24.1532 15.1241L24.1535 15.1235L24.1539 15.1229L24.1542 15.1223L24.1546 15.1217L24.1549 15.121L24.1553 15.1204L24.1556 15.1198L24.156 15.1192L24.1563 15.1186L24.1567 15.118L24.157 15.1174L24.1574 15.1167L24.1577 15.1161L24.1581 15.1155L24.1584 15.1149L24.1588 15.1143L24.1591 15.1137L24.1595 15.113L24.1599 15.1124L24.1602 15.1118L24.1606 15.1112L24.1609 15.1106L24.1613 15.1099L24.1616 15.1093L24.162 15.1087L24.1623 15.1081L24.1627 15.1075L24.163 15.1069L24.1634 15.1062L24.1637 15.1056L24.1641 15.105L24.1644 15.1044L24.1648 15.1038L24.1651 15.1032L24.1655 15.1025L24.1659 15.1019L24.1662 15.1013L24.1666 15.1007L24.1669 15.1001L24.1673 15.0994L24.1676 15.0988L24.168 15.0982L24.1683 15.0976L24.1687 15.097L24.169 15.0963L24.1694 15.0957L24.1697 15.0951L24.1701 15.0945L24.1705 15.0939L24.1708 15.0932L24.1712 15.0926L24.1715 15.092L24.1719 15.0914L24.1722 15.0908L24.1726 15.0901L24.1729 15.0895L24.1733 15.0889L24.1736 15.0883L24.174 15.0876L24.1744 15.087L24.1747 15.0864L24.1751 15.0858L24.1754 15.0852L24.1758 15.0845L24.1761 15.0839L24.1765 15.0833L24.1768 15.0827L24.1772 15.082L24.1776 15.0814L24.1779 15.0808L24.1783 15.0802L24.1786 15.0796L24.179 15.0789L24.1793 15.0783L24.1797 15.0777L24.18 15.0771L24.1804 15.0764L24.1808 15.0758L24.1811 15.0752L24.1815 15.0746L24.1818 15.0739L24.1822 15.0733L24.1825 15.0727L24.1829 15.0721L24.1833 15.0714L24.1836 15.0708L24.184 15.0702L24.1843 15.0696L24.1847 15.0689L24.185 15.0683L24.1854 15.0677L24.1858 15.0671L24.1861 15.0664L24.1865 15.0658L24.1868 15.0652L24.1872 15.0646L24.1875 15.0639L24.1879 15.0633L24.1883 15.0627L24.1886 15.0621L24.189 15.0614L24.1893 15.0608L24.1897 15.0602L24.19 15.0596L24.1904 15.0589L24.1908 15.0583L24.1911 15.0577L24.1915 15.0571L24.1918 15.0564L24.1922 15.0558L24.1926 15.0552L24.1929 15.0545L24.1933 15.0539L24.1936 15.0533L24.194 15.0527L24.1943 15.052L24.1947 15.0514L24.1951 15.0508L24.1954 15.0501L24.1958 15.0495L24.1961 15.0489L24.1965 15.0483L24.1969 15.0476L24.1972 15.047L24.1976 15.0464L24.1979 15.0457L24.1983 15.0451L24.1987 15.0445L24.199 15.0439L24.1994 15.0432L24.1997 15.0426L24.2001 15.042L24.2005 15.0413L24.2008 15.0407L24.2012 15.0401L24.2015 15.0394L24.2019 15.0388L24.2023 15.0382L24.2026 15.0376L24.203 15.0369L24.2033 15.0363L24.2037 15.0357L24.2041 15.035L24.2044 15.0344L24.2048 15.0338L24.2051 15.0331L24.2055 15.0325L24.2059 15.0319L24.2062 15.0312L24.2066 15.0306L24.2069 15.03L24.2073 15.0293L24.2077 15.0287L24.208 15.0281L24.2084 15.0274L24.2087 15.0268L24.2091 15.0262L24.2095 15.0256L24.2098 15.0249L24.2102 15.0243L24.2106 15.0237L24.2109 15.023L24.2113 15.0224L24.2116 15.0218L24.212 15.0211L24.2124 15.0205L24.2127 15.0199L24.2131 15.0192L24.2134 15.0186L24.2138 15.0179L24.2142 15.0173L24.2145 15.0167L24.2149 15.016L24.2153 15.0154L24.2156 15.0148L24.216 15.0141L24.2163 15.0135L24.2167 15.0129L24.2171 15.0122L24.2174 15.0116L24.2178 15.011L24.2182 15.0103L24.2185 15.0097L24.2189 15.0091L24.2192 15.0084L24.2196 15.0078L24.22 15.0071L24.2203 15.0065L24.2207 15.0059L24.2211 15.0052L24.2214 15.0046L24.2218 15.004L24.2222 15.0033L24.2225 15.0027L24.2229 15.0021L24.2232 15.0014L24.2236 15.0008L24.224 15.0001L24.2243 14.9995L24.2247 14.9989L24.2251 14.9982L24.2254 14.9976L24.2258 14.997L24.2262 14.9963L24.2265 14.9957L24.2269 14.995L24.2273 14.9944L24.2276 14.9938L24.228 14.9931L24.2283 14.9925L24.2287 14.9918L24.2291 14.9912L24.2294 14.9906L24.2298 14.9899L24.2302 14.9893L24.2305 14.9887L24.2309 14.988L24.2313 14.9874L24.2316 14.9867L24.232 14.9861L24.2324 14.9855L24.2327 14.9848L24.2331 14.9842L24.2335 14.9835L24.2338 14.9829L24.2342 14.9823L24.2346 14.9816L24.2349 14.981L24.2353 14.9803L24.2357 14.9797L24.236 14.979L24.2364 14.9784L24.2368 14.9778L24.2371 14.9771L24.2375 14.9765L24.2379 14.9758L24.2382 14.9752L24.2386 14.9746L24.239 14.9739L24.2393 14.9733L24.2397 14.9726L24.2401 14.972L24.2404 14.9713L24.2408 14.9707L24.2412 14.9701L24.2415 14.9694L24.2419 14.9688L24.2423 14.9681L24.2426 14.9675L24.243 14.9668L24.2434 14.9662L24.2437 14.9656L24.2441 14.9649L24.2445 14.9643L24.2448 14.9636L24.2452 14.963L24.2456 14.9623L24.2459 14.9617L24.2463 14.961L24.2467 14.9604L24.247 14.9598L24.2474 14.9591L24.2478 14.9585L24.2481 14.9578L24.2485 14.9572L24.2489 14.9565L24.2493 14.9559L24.2496 14.9552L24.25 14.9546L24.2504 14.954L24.2507 14.9533L24.2511 14.9527L24.2515 14.952L24.2518 14.9514L24.2522 14.9507L24.2526 14.9501L24.2529 14.9494L24.2533 14.9488L24.2537 14.9481L24.254 14.9475L24.2544 14.9468L24.2548 14.9462L24.2552 14.9455L24.2555 14.9449L24.2559 14.9443L24.2563 14.9436L24.2566 14.943L24.257 14.9423L24.2574 14.9417L24.2577 14.941L24.2581 14.9404L24.2585 14.9397L24.2589 14.9391L24.2592 14.9384L24.2596 14.9378L24.26 14.9371L24.2603 14.9365L24.2607 14.9358L24.2611 14.9352L24.2614 14.9345L24.2618 14.9339L24.2622 14.9332L24.2626 14.9326L24.2629 14.9319L24.2633 14.9313L24.2637 14.9306L24.264 14.93L24.2644 14.9293L24.2648 14.9287L24.2652 14.928L24.2655 14.9274L24.2659 14.9267L24.2663 14.9261L24.2666 14.9254L24.267 14.9248L24.2674 14.9241L24.2678 14.9235L24.2681 14.9228L24.2685 14.9222L24.2689 14.9215L24.2693 14.9209L24.2696 14.9202L24.27 14.9196L24.2704 14.9189L24.2707 14.9183L24.2711 14.9176L24.2715 14.917L24.2719 14.9163L24.2722 14.9157L24.2726 14.915L24.273 14.9143L24.2733 14.9137L24.2737 14.913L24.2741 14.9124L24.2745 14.9117L24.2748 14.9111L24.2752 14.9104L24.2756 14.9098L24.276 14.9091L24.2763 14.9085L24.2767 14.9078L24.2771 14.9072L24.2775 14.9065L24.2778 14.9059L24.2782 14.9052L24.2786 14.9045L24.2789 14.9039L24.2793 14.9032L24.2797 14.9026L24.2801 14.9019L24.2804 14.9013L24.2808 14.9006L24.2812 14.9L24.2816 14.8993L24.2819 14.8986L24.2823 14.898L24.2827 14.8973L24.2831 14.8967L24.2834 14.896L24.2838 14.8954L24.2842 14.8947L24.2846 14.8941L24.2849 14.8934L24.2853 14.8927L24.2857 14.8921L24.2861 14.8914L24.2864 14.8908L24.2868 14.8901L24.2872 14.8895L24.2876 14.8888L24.2879 14.8881L24.2883 14.8875L24.2887 14.8868L24.2891 14.8862L24.2894 14.8855L24.2898 14.8849L24.2902 14.8842L24.2906 14.8835L24.2909 14.8829L24.2913 14.8822L24.2917 14.8816L24.2921 14.8809L24.2925 14.8802L24.2928 14.8796L24.2932 14.8789L24.2936 14.8783L24.294 14.8776L24.2943 14.877L24.2947 14.8763L24.2951 14.8756L24.2955 14.875L24.2958 14.8743L24.2962 14.8737L24.2966 14.873L24.297 14.8723L24.2973 14.8717L24.2977 14.871L24.2981 14.8704L24.2985 14.8697L24.2989 14.869L24.2992 14.8684L24.2996 14.8677L24.3 14.867L24.3004 14.8664L24.3007 14.8657L24.3011 14.8651L24.3015 14.8644L24.3019 14.8637L24.3023 14.8631L24.3026 14.8624L24.303 14.8618L24.3034 14.8611L24.3038 14.8604C25.0666 13.5248 26.4805 13.3475 27.4516 13.9143C28.4226 14.481 28.9777 15.8075 28.2149 17.1432L28.2145 17.1438L28.2141 17.1445L28.2138 17.1451L28.2134 17.1458L28.213 17.1464L28.2126 17.1471L28.2123 17.1478L28.2119 17.1484L28.2115 17.1491L28.2112 17.1497L28.2108 17.1504L28.2104 17.151L28.21 17.1517L28.2097 17.1523L28.2093 17.153L28.2089 17.1536L28.2085 17.1543L28.2082 17.1549L28.2078 17.1556L28.2074 17.1563L28.207 17.1569L28.2067 17.1576L28.2063 17.1582L28.2059 17.1589L28.2056 17.1595L28.2052 17.1602L28.2048 17.1608L28.2044 17.1615L28.2041 17.1621L28.2037 17.1628L28.2033 17.1634L28.2029 17.1641L28.2026 17.1647L28.2022 17.1654L28.2018 17.166L28.2015 17.1667L28.2011 17.1673L28.2007 17.168L28.2003 17.1686L28.2 17.1693L28.1996 17.17L28.1992 17.1706L28.1988 17.1713L28.1985 17.1719L28.1981 17.1726L28.1977 17.1732L28.1974 17.1739L28.197 17.1745L28.1966 17.1752L28.1962 17.1758L28.1959 17.1765L28.1955 17.1771L28.1951 17.1778L28.1948 17.1784L28.1944 17.1791L28.194 17.1797L28.1936 17.1804L28.1933 17.181L28.1929 17.1817L28.1925 17.1823L28.1922 17.183L28.1918 17.1836L28.1914 17.1843L28.191 17.1849L28.1907 17.1856L28.1903 17.1862L28.1899 17.1869L28.1896 17.1875L28.1892 17.1882L28.1888 17.1888L28.1885 17.1895L28.1881 17.1901L28.1877 17.1908L28.1873 17.1914L28.187 17.192L28.1866 17.1927L28.1862 17.1933L28.1859 17.194L28.1855 17.1946L28.1851 17.1953L28.1848 17.1959L28.1844 17.1966L28.184 17.1972L28.1836 17.1979L28.1833 17.1985L28.1829 17.1992L28.1825 17.1998L28.1822 17.2005L28.1818 17.2011L28.1814 17.2018L28.1811 17.2024L28.1807 17.2031L28.1803 17.2037L28.1799 17.2044L28.1796 17.205L28.1792 17.2056L28.1788 17.2063L28.1785 17.2069L28.1781 17.2076L28.1777 17.2082L28.1774 17.2089L28.177 17.2095L28.1766 17.2102L28.1763 17.2108L28.1759 17.2115L28.1755 17.2121L28.1751 17.2128L28.1748 17.2134L28.1744 17.214L28.174 17.2147L28.1737 17.2153L28.1733 17.216L28.1729 17.2166L28.1726 17.2173L28.1722 17.2179L28.1718 17.2186L28.1715 17.2192L28.1711 17.2198L28.1707 17.2205L28.1704 17.2211L28.17 17.2218L28.1696 17.2224L28.1693 17.2231L28.1689 17.2237L28.1685 17.2244L28.1682 17.225L28.1678 17.2256L28.1674 17.2263L28.167 17.2269L28.1667 17.2276L28.1663 17.2282L28.1659 17.2289L28.1656 17.2295L28.1652 17.2302L28.1648 17.2308L28.1645 17.2314L28.1641 17.2321L28.1637 17.2327L28.1634 17.2334L28.163 17.234L28.1626 17.2347L28.1623 17.2353L28.1619 17.2359L28.1615 17.2366L28.1612 17.2372L28.1608 17.2379L28.1604 17.2385L28.1601 17.2391L28.1597 17.2398L28.1593 17.2404L28.159 17.2411L28.1586 17.2417L28.1582 17.2424L28.1579 17.243L28.1575 17.2436L28.1571 17.2443L28.1568 17.2449L28.1564 17.2456L28.156 17.2462L28.1557 17.2468L28.1553 17.2475L28.1549 17.2481L28.1546 17.2488L28.1542 17.2494L28.1539 17.25L28.1535 17.2507L28.1531 17.2513L28.1528 17.252L28.1524 17.2526L28.152 17.2532L28.1517 17.2539L28.1513 17.2545L28.1509 17.2552L28.1506 17.2558L28.1502 17.2564L28.1498 17.2571L28.1495 17.2577L28.1491 17.2584L28.1487 17.259L28.1484 17.2596L28.148 17.2603L28.1476 17.2609L28.1473 17.2616L28.1469 17.2622L28.1465 17.2628L28.1462 17.2635L28.1458 17.2641L28.1455 17.2648L28.1451 17.2654L28.1447 17.266L28.1444 17.2667L28.144 17.2673L28.1436 17.2679L28.1433 17.2686L28.1429 17.2692L28.1425 17.2699L28.1422 17.2705L28.1418 17.2711L28.1414 17.2718L28.1411 17.2724L28.1407 17.273L28.1404 17.2737L28.14 17.2743L28.1396 17.275L28.1393 17.2756L28.1389 17.2762L28.1385 17.2769L28.1382 17.2775L28.1378 17.2781L28.1374 17.2788L28.1371 17.2794L28.1367 17.28L28.1364 17.2807L28.136 17.2813L28.1356 17.282L28.1353 17.2826L28.1349 17.2832L28.1345 17.2839L28.1342 17.2845L28.1338 17.2851L28.1334 17.2858L28.1331 17.2864L28.1327 17.287L28.1324 17.2877L28.132 17.2883L28.1316 17.2889L28.1313 17.2896L28.1309 17.2902L28.1305 17.2908L28.1302 17.2915L28.1298 17.2921L28.1295 17.2928L28.1291 17.2934L28.1287 17.294L28.1284 17.2947L28.128 17.2953L28.1276 17.2959L28.1273 17.2966L28.1269 17.2972L28.1266 17.2978L28.1262 17.2985L28.1258 17.2991L28.1255 17.2997L28.1251 17.3004L28.1248 17.301L28.1244 17.3016L28.124 17.3023L28.1237 17.3029L28.1233 17.3035L28.1229 17.3042L28.1226 17.3048L28.1222 17.3054L28.1219 17.3061L28.1215 17.3067L28.1211 17.3073L28.1208 17.308L28.1204 17.3086L28.1201 17.3092L28.1197 17.3098L28.1193 17.3105L28.119 17.3111L28.1186 17.3117L28.1183 17.3124L28.1179 17.313L28.1175 17.3136L28.1172 17.3143L28.1168 17.3149L28.1164 17.3155L28.1161 17.3162L28.1157 17.3168L28.1154 17.3174L28.115 17.3181L28.1146 17.3187L28.1143 17.3193L28.1139 17.3199L28.1136 17.3206L28.1132 17.3212L28.1128 17.3218L28.1125 17.3225L28.1121 17.3231L28.1118 17.3237L28.1114 17.3244L28.111 17.325L28.1107 17.3256L28.1103 17.3263L28.11 17.3269L28.1096 17.3275L28.1093 17.3281L28.1089 17.3288L28.1085 17.3294L28.1082 17.33L28.1078 17.3307L28.1075 17.3313L28.1071 17.3319L28.1067 17.3325L28.1064 17.3332L28.106 17.3338L28.1057 17.3344L28.1053 17.3351L28.1049 17.3357L28.1046 17.3363L28.1042 17.3369L28.1039 17.3376L28.1035 17.3382L28.1031 17.3388L28.1028 17.3395L28.1024 17.3401L28.1021 17.3407L28.1017 17.3413L28.1014 17.342L28.101 17.3426L28.1006 17.3432L28.1003 17.3438L28.0999 17.3445L28.0996 17.3451L28.0992 17.3457L28.0988 17.3464L28.0985 17.347L28.0981 17.3476L28.0978 17.3482L28.0974 17.3489L28.0971 17.3495L28.0967 17.3501L28.0963 17.3507L28.096 17.3514L28.0956 17.352L28.0953 17.3526L28.0949 17.3532L28.0946 17.3539L28.0942 17.3545L28.0938 17.3551L28.0935 17.3557L28.0931 17.3564L28.0928 17.357L28.0924 17.3576L28.0921 17.3582L28.0917 17.3589L28.0913 17.3595L28.091 17.3601L28.0906 17.3607L28.0903 17.3614L28.0899 17.362L28.0896 17.3626L28.0892 17.3632L28.0888 17.3639L28.0885 17.3645L28.0881 17.3651L28.0878 17.3657L28.0874 17.3664L28.0871 17.367L28.0867 17.3676L28.0863 17.3682L28.086 17.3689L28.0856 17.3695L28.0853 17.3701L28.0849 17.3707L28.0846 17.3714L28.0842 17.372L28.0839 17.3726L28.0835 17.3732L28.0831 17.3738L28.0828 17.3745L28.0824 17.3751L28.0821 17.3757L28.0817 17.3763L28.0814 17.377L28.081 17.3776L28.0807 17.3782L28.0803 17.3788L28.0799 17.3795L28.0796 17.3801L28.0792 17.3807L28.0789 17.3813L28.0785 17.3819L28.0782 17.3826L28.0778 17.3832L28.0775 17.3838L28.0771 17.3844L28.0767 17.385L28.0764 17.3857L28.076 17.3863L28.0757 17.3869L28.0753 17.3875L28.075 17.3882L28.0746 17.3888L28.0743 17.3894L28.0739 17.39L28.0736 17.3906L28.0732 17.3913L28.0728 17.3919L28.0725 17.3925L28.0721 17.3931L28.0718 17.3937L28.0714 17.3944L28.0711 17.395L28.0707 17.3956L28.0704 17.3962L28.07 17.3968L28.0697 17.3975L28.0693 17.3981L28.069 17.3987L28.0686 17.3993L28.0682 17.3999L28.0679 17.4006L28.0675 17.4012L28.0672 17.4018L28.0668 17.4024L28.0665 17.403L28.0661 17.4036L28.0658 17.4043L28.0654 17.4049L28.0651 17.4055L28.0647 17.4061L28.0644 17.4067L28.064 17.4074L28.0637 17.408L28.0633 17.4086L28.0629 17.4092L28.0626 17.4098L28.0622 17.4104L28.0619 17.4111L28.0615 17.4117L28.0612 17.4123L28.0608 17.4129L28.0605 17.4135L28.0601 17.4141L28.0598 17.4148L28.0594 17.4154L28.0591 17.416L28.0587 17.4166L28.0584 17.4172L28.058 17.4179L28.0577 17.4185L28.0573 17.4191L28.057 17.4197L28.0566 17.4203L28.0563 17.4209L28.0559 17.4215L28.0556 17.4222L28.0552 17.4228L28.0548 17.4234L28.0545 17.424L28.0541 17.4246L28.0538 17.4252L28.0534 17.4259L28.0531 17.4265L28.0527 17.4271L28.0524 17.4277L28.052 17.4283L28.0517 17.4289L28.0513 17.4295L28.051 17.4302L28.0506 17.4308L28.0503 17.4314L28.0499 17.432L28.0496 17.4326L28.0492 17.4332L28.0489 17.4339L28.0485 17.4345L28.0482 17.4351L28.0478 17.4357L28.0475 17.4363L28.0471 17.4369L28.0468 17.4375L28.0464 17.4381L28.0461 17.4388L28.0457 17.4394L28.0454 17.44L28.045 17.4406L28.0447 17.4412L28.0443 17.4418L28.044 17.4424L28.0436 17.4431L28.0433 17.4437L28.0429 17.4443L28.0426 17.4449L28.0422 17.4455L28.0419 17.4461L28.0415 17.4467L28.0412 17.4473L28.0408 17.448L28.0405 17.4486L28.0401 17.4492L28.0398 17.4498L28.0394 17.4504L28.0391 17.451L28.0387 17.4516L28.0384 17.4522L28.038 17.4528L28.0377 17.4535L28.0373 17.4541L28.037 17.4547L28.0366 17.4553L28.0363 17.4559L28.0359 17.4565L28.0356 17.4571L28.0352 17.4577L28.0349 17.4583L28.0345 17.459L28.0342 17.4596L28.0338 17.4602L28.0335 17.4608L28.0331 17.4614L28.0328 17.462L28.0324 17.4626L28.0321 17.4632L28.0317 17.4638L28.0314 17.4645L28.0311 17.4651L28.0307 17.4657L28.0304 17.4663L28.03 17.4669C27.043 19.1951 27.5523 21.4584 29.3083 22.4833L29.463 22.5736C30.0661 22.9256 30.1054 24.0315 29.2481 24.3863C28.9702 24.5012 28.68 24.4754 28.4527 24.3427L18.0172 18.252C17.7899 18.1193 17.6226 17.8782 17.5822 17.5775C17.4575 16.6495 18.4245 16.1309 19.0276 16.4829ZM16.3088 17.7455C16.0535 15.8461 18.0586 14.4234 19.6675 15.3625L19.8222 15.4527C20.9229 16.0952 22.3474 15.6843 23.0043 14.534L23.1894 14.21C24.3345 12.205 26.5565 11.8979 28.0915 12.7938C29.6264 13.6897 30.4744 15.7886 29.3293 17.7936L29.1444 18.1173C28.4875 19.2676 28.8475 20.7204 29.9483 21.3629L30.103 21.4531C31.7118 22.3922 31.4956 24.8589 29.7408 25.5851C29.1051 25.8482 28.3957 25.8033 27.8128 25.4631L25.2971 23.9949L25.2962 23.9965L22.5737 28.7633C22.2163 29.3891 21.7734 29.9609 21.2579 30.4622L18.7647 32.8865C17.3733 34.2395 15.0805 32.9012 15.5438 31.0066L16.3741 27.6118C16.5458 26.9098 16.8142 26.2361 17.1716 25.6103L19.894 20.8435L19.895 20.8419L17.3773 19.3725C16.7944 19.0323 16.4013 18.4336 16.3088 17.7455ZM21.4594 28.1128L23.5419 24.4665L24.1818 23.346L23.0674 22.6956L21.0084 21.4939L18.286 26.2607C17.9884 26.7818 17.7648 27.3429 17.6219 27.9275L16.7916 31.3223C16.6368 31.9552 17.4056 32.4039 17.8704 31.952L20.3635 29.5277C20.7929 29.1102 21.1617 28.634 21.4594 28.1128Z" fill="url(#paint1_linear_2721_1071)"/>
<defs>
<linearGradient id="paint0_linear_2721_1071" x1="8.19353" y1="2.83619" x2="41.6129" y2="52.062" gradientUnits="userSpaceOnUse">
<stop stop-color="#7630FA"/>
<stop offset="1" stop-color="#EB826B"/>
</linearGradient>
<linearGradient id="paint1_linear_2721_1071" x1="17.2321" y1="12.3164" x2="23.4462" y2="35.2126" gradientUnits="userSpaceOnUse">
<stop stop-color="#7630FA"/>
<stop offset="1" stop-color="#EB826B"/>
</linearGradient>
</defs>
</svg>
