<svg width="158" height="152" viewBox="0 0 158 152" fill="none" xmlns="http://www.w3.org/2000/svg">
<path d="M147.931 75.8621C150.026 75.8621 151.734 77.5617 151.629 79.6539C150.833 95.5681 145.042 110.864 135.029 123.342C124.223 136.808 109.147 146.184 92.2917 149.924C75.4361 153.663 57.8093 151.541 42.323 143.908C26.8366 136.274 14.4172 123.587 7.11637 107.941C-0.184503 92.2957 -1.93009 74.6276 2.16795 57.8557C6.26599 41.0838 15.9625 26.2114 29.6557 15.6954C43.3489 5.17939 60.2197 -0.35118 77.481 0.0172771C93.4756 0.358693 108.919 5.74612 121.627 15.3588C123.298 16.6226 123.503 19.0235 122.157 20.6289C120.811 22.2344 118.425 22.4356 116.747 21.1811C105.368 12.6726 91.5873 7.90633 77.3191 7.60176C61.7839 7.27015 46.6003 12.2477 34.2764 21.7121C21.9525 31.1765 13.2256 44.5616 9.53736 59.6563C5.84913 74.751 7.42016 90.6523 13.9909 104.733C20.5617 118.815 31.7392 130.233 45.6769 137.103C59.6146 143.973 75.4787 145.883 90.6487 142.518C105.819 139.152 119.387 130.713 129.112 118.594C138.044 107.463 143.244 93.8401 144.033 79.6536C144.149 77.5619 145.836 75.8621 147.931 75.8621Z" fill="url(#paint0_linear_5468_2032)" fill-opacity="0.95"/>
<path d="M47.793 68.2765L67.8566 92.4913C68.926 93.7819 70.8392 93.9611 72.1296 92.8916L154 25.0352" stroke="url(#paint1_linear_5468_2032)" stroke-opacity="0.95" stroke-width="7.58621" stroke-linecap="round"/>
<defs>
<linearGradient id="paint0_linear_5468_2032" x1="137.5" y1="-6.5" x2="21" y2="138.5" gradientUnits="userSpaceOnUse">
<stop stop-color="#D9C6FF"/>
<stop offset="1" stop-color="#A271FF"/>
</linearGradient>
<linearGradient id="paint1_linear_5468_2032" x1="130" y1="5.00069" x2="54.5" y2="95.0007" gradientUnits="userSpaceOnUse">
<stop stop-color="#D9C6FF"/>
<stop offset="1" stop-color="#A271FF"/>
</linearGradient>
</defs>
</svg>
