<svg width="20" height="21" viewBox="0 0 20 21" fill="none" xmlns="http://www.w3.org/2000/svg">
<path d="M4.18462 11.2043L4.18357 15.4635C4.18362 15.5599 4.20933 15.6546 4.25797 15.7373C4.3066 15.8201 4.37634 15.8878 4.45976 15.9334C4.54317 15.9789 4.63714 16.0005 4.73164 15.9959C4.82615 15.9913 4.91767 15.9607 4.99643 15.9072L8.13281 13.7781C8.20445 13.7294 8.26318 13.6634 8.30381 13.586C8.34444 13.5086 8.36569 13.4222 8.36569 13.3344C8.36569 13.2466 8.34444 13.1602 8.30381 13.0828C8.26318 13.0054 8.20445 12.9394 8.13281 12.8907L4.99748 10.7605C4.91871 10.7071 4.8272 10.6764 4.73269 10.6718C4.63818 10.6672 4.54422 10.6888 4.4608 10.7344C4.37739 10.7799 4.30765 10.8476 4.25902 10.9304C4.21038 11.0131 4.18467 11.1078 4.18462 11.2043ZM0 10.4C0 9.76348 0.247994 9.15303 0.689426 8.70294C1.13086 8.25286 1.72957 8 2.35385 8H9.15385C9.77813 8 10.3768 8.25286 10.8183 8.70294C11.2597 9.15303 11.5077 9.76348 11.5077 10.4V16.2667C11.5077 16.9032 11.2597 17.5136 10.8183 17.9637C10.3768 18.4138 9.77813 18.6667 9.15385 18.6667H2.35385C1.72957 18.6667 1.13086 18.4138 0.689426 17.9637C0.247994 17.5136 0 16.9032 0 16.2667V10.4ZM2.35385 9.06667C1.632 9.06667 1.04615 9.664 1.04615 10.4V16.2667C1.04615 17.0027 1.632 17.6 2.35385 17.6H9.15385C9.8757 17.6 10.4615 17.0027 10.4615 16.2667V10.4C10.4615 9.664 9.8757 9.06667 9.15385 9.06667H2.35385ZM2.09231 19.7333C2.56936 20.3808 3.32886 20.8 4.18462 20.8H9.67693C10.7174 20.8 11.7152 20.3786 12.451 19.6284C13.1867 18.8783 13.6 17.8609 13.6 16.8V12.2667C13.6 11.3941 13.1889 10.6197 12.5539 10.1333V16.8C12.5539 17.578 12.2508 18.3241 11.7112 18.8742C11.1717 19.4243 10.4399 19.7333 9.67693 19.7333H2.09231Z" fill="white"/>
<path d="M16.8 0.800001C16.8 0.587827 16.7157 0.384343 16.5657 0.234314C16.4157 0.0842849 16.2122 0 16 0C15.7878 0 15.5843 0.0842849 15.4343 0.234314C15.2843 0.384343 15.2 0.587827 15.2 0.800001V3.2H12.8C12.5878 3.2 12.3843 3.28429 12.2343 3.43432C12.0843 3.58435 12 3.78783 12 4C12 4.21218 12.0843 4.41566 12.2343 4.56569C12.3843 4.71572 12.5878 4.8 12.8 4.8H15.2V7.20001C15.2 7.41218 15.2843 7.61566 15.4343 7.76569C15.5843 7.91572 15.7878 8.00001 16 8.00001C16.2122 8.00001 16.4157 7.91572 16.5657 7.76569C16.7157 7.61566 16.8 7.41218 16.8 7.20001V4.8H19.2C19.4122 4.8 19.6157 4.71572 19.7657 4.56569C19.9157 4.41566 20 4.21218 20 4C20 3.78783 19.9157 3.58435 19.7657 3.43432C19.6157 3.28429 19.4122 3.2 19.2 3.2H16.8V0.800001Z" fill="white"/>
</svg>
