<svg width="18" height="21" viewBox="0 0 18 21" fill="none" xmlns="http://www.w3.org/2000/svg">
<path d="M0.949992 12.927C1.00199 13.1609 1.05198 13.3873 1.10039 13.6065C1.37982 14.872 1.60661 15.8991 1.86454 16.751C2.16605 17.747 2.48965 18.4281 2.92747 18.9156C3.77907 19.8637 5.24562 20.2765 8.70712 20.2765C12.1686 20.2765 13.6352 19.8637 14.4868 18.9156C14.9246 18.4281 15.2482 17.747 15.5497 16.751C15.8076 15.8991 16.0344 14.872 16.3138 13.6066C16.3622 13.3873 16.4122 13.1609 16.4642 12.927C17.1472 9.85592 16.7225 8.21289 15.5958 7.26983C15.0025 6.77323 14.1528 6.41172 12.9931 6.17817C11.8352 5.94496 10.4108 5.84757 8.70712 5.84757C7.0034 5.84757 5.57903 5.94496 4.42111 6.17817C3.26147 6.41172 2.41173 6.77323 1.81846 7.26983C0.691778 8.21289 0.267091 9.85592 0.949992 12.927Z" stroke="#C33407" stroke-opacity="0.95" stroke-width="1.24389" stroke-linecap="round" stroke-linejoin="round"/>
<path d="M8.70746 10.4453V15.6696M5.22461 10.4453V15.6696M12.1903 10.4453V15.6696" stroke="#C33407" stroke-opacity="0.95" stroke-width="1.24389" stroke-linecap="round" stroke-linejoin="round"/>
<path fill-rule="evenodd" clip-rule="evenodd" d="M7.46342 2.02034V0.933842C7.46342 0.521649 7.79757 0.1875 8.20977 0.1875H9.20487C9.61706 0.1875 9.95121 0.521649 9.95121 0.933842V2.02044C13.3651 2.19493 15.6165 3.06857 16.8646 3.81971C17.1589 3.99684 17.2539 4.379 17.0767 4.6733C16.8996 4.96761 16.5174 5.06259 16.2231 4.88547C15.045 4.1764 12.6267 3.23311 8.70745 3.23311C4.77906 3.23311 2.2906 4.18035 1.20704 4.87597C0.917987 5.06153 0.533233 4.97764 0.347668 4.68859C0.162103 4.39953 0.245997 4.01478 0.53505 3.82921C1.72385 3.06603 4.0417 2.19432 7.46342 2.02034Z" fill="#C33407" fill-opacity="0.95"/>
</svg>
