<svg width="34" height="28" viewBox="0 0 34 28" fill="none" xmlns="http://www.w3.org/2000/svg">
<path fill-rule="evenodd" clip-rule="evenodd" d="M17.9514 5.84882L19.7284 4.07912C22.4785 1.34028 26.9282 1.34944 29.6671 4.09958C32.4059 6.84972 32.3968 11.2994 29.6466 14.0383L27.8801 15.7975L27.8767 15.7941L25.332 13.2599L17.9514 5.84882ZM28.9281 16.8708L28.1148 17.6807L27.8811 17.9154L19.5666 26.2642C18.0963 27.7406 15.7076 27.7455 14.2312 26.2752L3.04236 15.1323C-0.294768 11.8089 -0.305877 6.40948 3.01754 3.07235C6.34097 -0.264778 11.7404 -0.275892 15.0775 3.04753L16.858 4.82072L16.8929 4.78598L18.6699 3.01628C22.0071 -0.307142 27.4065 -0.296028 30.7299 3.0411C34.0534 6.37823 34.0422 11.7777 30.7051 15.1011L28.9281 16.8708ZM26.8068 16.8664L24.2716 14.3208L14.0191 4.11037C11.2689 1.37153 6.81923 1.38069 4.08039 4.13083C1.34154 6.88097 1.3507 11.3307 4.10084 14.0695L15.2897 25.2124C16.179 26.0981 17.618 26.0951 18.5038 25.2058L26.8078 16.8675L26.8068 16.8664ZM9.65042 8.30865C9.65042 9.09745 9.01097 9.73691 8.22216 9.73691C7.43336 9.73691 6.7939 9.09745 6.7939 8.30865C6.7939 7.51984 7.43336 6.88039 8.22216 6.88039C9.01097 6.88039 9.65042 7.51984 9.65042 8.30865ZM11.1504 8.30865C11.1504 9.92588 9.83939 11.2369 8.22216 11.2369C6.60493 11.2369 5.2939 9.92588 5.2939 8.30865C5.2939 6.69141 6.60493 5.38039 8.22216 5.38039C9.83939 5.38039 11.1504 6.69141 11.1504 8.30865Z" fill="white"/>
</svg>
