<svg width="20" height="18" viewBox="0 0 20 18" fill="none" xmlns="http://www.w3.org/2000/svg">
<path d="M4.75 5.25L1 9M1 9L4.75 12.75M1 9L11.5 9" stroke="#C33407" stroke-opacity="0.95" stroke-width="1.5" stroke-linecap="round" stroke-linejoin="round"/>
<path fill-rule="evenodd" clip-rule="evenodd" d="M7.22188 14.25C6.72137 14.25 6.34812 14.7235 6.53316 15.1885C7.41106 17.3948 9.23597 18 12.7792 18C18.5195 18 19.7498 16.4115 19.7498 9C19.7498 1.5885 18.5195 0 12.7792 0C9.23597 0 7.41106 0.605217 6.53316 2.81149C6.34812 3.27653 6.72137 3.75 7.22188 3.75C7.56122 3.75 7.85235 3.52434 7.99077 3.21452C8.09577 2.97952 8.20897 2.79178 8.32715 2.63919C8.87193 1.9358 9.91142 1.5 12.7792 1.5C15.647 1.5 16.6865 1.9358 17.2312 2.63919C17.5353 3.03181 17.8064 3.65717 17.9896 4.72148C18.1728 5.78539 18.2498 7.17303 18.2498 9C18.2498 10.827 18.1728 12.2146 17.9896 13.2785C17.8064 14.3428 17.5353 14.9682 17.2312 15.3608C16.6865 16.0642 15.647 16.5 12.7792 16.5C9.91142 16.5 8.87193 16.0642 8.32715 15.3608C8.20897 15.2082 8.09577 15.0205 7.99077 14.7855C7.85234 14.4757 7.56122 14.25 7.22188 14.25Z" fill="#C33407" fill-opacity="0.95"/>
</svg>
