<svg width="14" height="16" viewBox="0 0 14 16" fill="none" xmlns="http://www.w3.org/2000/svg">
<path d="M0.553577 7.2068C0.507378 7.18012 0.480322 7.13964 0.470694 7.10139C0.461725 7.06577 0.467557 7.03458 0.487568 7.00663L0.108154 6.73495L0.487569 7.00663C0.843213 6.50996 1.27081 6.06752 1.7572 5.6943C2.40469 5.19746 3.14371 4.83302 3.93204 4.62178C4.72038 4.41055 5.54261 4.35666 6.35178 4.46318C7.16094 4.56971 7.9412 4.83458 8.64801 5.24265C9.35481 5.65073 9.97432 6.19402 10.4712 6.84151C10.968 7.48901 11.3324 8.22802 11.5437 9.01636C11.7549 9.8047 11.8088 10.6269 11.7023 11.4361C11.6222 12.0439 11.4529 12.6355 11.2006 13.1918C11.1864 13.2231 11.1623 13.2437 11.1269 13.2538C11.089 13.2646 11.0404 13.2614 10.9942 13.2347L0.553577 7.2068Z" stroke="white" stroke-opacity="0.95" stroke-width="0.933312"/>
<path d="M13.4499 4.11815C13.4967 4.14516 13.5222 4.18548 13.5304 4.21905C13.5374 4.24818 13.5321 4.26846 13.5166 4.28769C13.3259 4.52539 13.1069 4.73991 12.864 4.9263C12.4666 5.23119 12.0131 5.45484 11.5293 5.58447C11.0455 5.71409 10.541 5.74716 10.0444 5.68179C9.54786 5.61642 9.06904 5.45388 8.6353 5.20346C8.20156 4.95304 7.82139 4.61964 7.51649 4.22229C7.2116 3.82495 6.98796 3.37144 6.85833 2.88766C6.7287 2.40389 6.69563 1.89932 6.761 1.40276C6.80097 1.0992 6.87724 0.802269 6.98771 0.518212C6.99665 0.495229 7.01153 0.480452 7.04029 0.47201C7.07344 0.462278 7.12113 0.464243 7.16792 0.491256L13.4499 4.11815Z" stroke="white" stroke-opacity="0.95" stroke-width="0.933312"/>
<path d="M2.6123 15.0076L5.55358 10.1055" stroke="white" stroke-opacity="0.95" stroke-width="0.933312" stroke-linecap="round" stroke-linejoin="round"/>
</svg>
