<svg width="39" height="39" viewBox="0 0 39 39" fill="none" xmlns="http://www.w3.org/2000/svg">
<circle cx="19.5" cy="19.5" r="19.5" fill="#171717"/>
<path d="M12.4858 18.3322C12.4292 18.2995 12.3955 18.2496 12.3834 18.2016C12.3721 18.1564 12.3794 18.1155 12.4054 18.0792L11.9918 17.783L12.4054 18.0792C12.8083 17.5165 13.2927 17.0153 13.8437 16.5925C14.5772 16.0297 15.4144 15.6168 16.3075 15.3775C17.2005 15.1382 18.132 15.0772 19.0487 15.1978C19.9653 15.3185 20.8492 15.6186 21.6499 16.0808C22.4506 16.5431 23.1524 17.1586 23.7153 17.8921C24.2781 18.6256 24.691 19.4628 24.9303 20.3559C25.1696 21.2489 25.2306 22.1804 25.1099 23.0971C25.0193 23.7856 24.8274 24.4557 24.5416 25.086C24.5232 25.1266 24.4914 25.1535 24.4466 25.1662C24.3989 25.1798 24.3388 25.1756 24.2823 25.1429L12.4858 18.3322Z" stroke="white" stroke-width="1.01739"/>
<path d="M27.0752 14.8107C27.1324 14.8437 27.1645 14.8935 27.1749 14.9364C27.1841 14.9744 27.1772 15.0034 27.1558 15.0299C26.9394 15.2996 26.6909 15.5431 26.4152 15.7546C25.9643 16.1005 25.4497 16.3543 24.9008 16.5014C24.3518 16.6485 23.7793 16.686 23.2158 16.6118C22.6524 16.5377 22.109 16.3532 21.6169 16.0691C21.1247 15.7849 20.6933 15.4066 20.3473 14.9557C20.0014 14.5048 19.7476 13.9902 19.6005 13.4413C19.4534 12.8923 19.4159 12.3198 19.4901 11.7563C19.5354 11.4119 19.622 11.0749 19.7473 10.7526C19.7597 10.7209 19.7812 10.7004 19.8188 10.6893C19.8612 10.6769 19.9203 10.6798 19.9775 10.7128L27.0752 14.8107Z" stroke="white" stroke-width="1.01739"/>
<path d="M14.8237 27.1325L18.147 21.5938" stroke="white" stroke-width="1.01739" stroke-linecap="round" stroke-linejoin="round"/>
</svg>
