<svg width="24" height="24" viewBox="0 0 24 24" fill="none" xmlns="http://www.w3.org/2000/svg">
<path d="M7.52534 6.03906C7.52534 12.4317 17.1143 12.4317 17.1143 6.03906" stroke="#6D7280" stroke-width="1.5" stroke-linecap="round" stroke-linejoin="round"/>
<path d="M2.21575 10.8771C2.14731 11.2174 2.07658 11.5691 2.00286 11.9327C1.08576 17.0642 1.66169 19.5391 3.17648 20.8367C3.95889 21.5069 5.07757 21.9461 6.61958 22.2094C8.16044 22.4726 10.0511 22.5488 12.3197 22.5488C14.5882 22.5488 16.4789 22.4726 18.0198 22.2094C19.5618 21.9461 20.6805 21.5069 21.4629 20.8367C22.9777 19.5391 23.5536 17.0642 22.6365 11.9327C22.5628 11.5692 22.4921 11.2175 22.4236 10.8773C22.0618 9.07793 21.764 7.59697 21.4256 6.35964C21.0231 4.88808 20.5853 3.8517 19.9839 3.1012C18.8295 1.66074 16.8715 1.03543 12.3197 1.03543C7.76786 1.03543 5.80984 1.66074 4.65553 3.10119C4.0541 3.8517 3.61627 4.88808 3.21381 6.35965C2.87542 7.59693 2.5776 9.07783 2.21575 10.8771Z" stroke="#6D7280" stroke-width="1.5" stroke-linecap="round" stroke-linejoin="round"/>
</svg>
