<svg width="26" height="26" viewBox="0 0 26 26" fill="none" xmlns="http://www.w3.org/2000/svg">
<path d="M5.41715 2.03516H12.8627V0.535156H5.41715V2.03516ZM12.8627 2.03516H20.3082V0.535156H12.8627V2.03516ZM20.3082 23.5486H12.8627V25.0486H20.3082V23.5486ZM12.8627 23.5486H5.41714V25.0486H12.8627V23.5486ZM2.10596 20.2374V18.0787H0.605957V20.2374H2.10596ZM2.10596 18.0787V5.34635H0.605957V18.0787H2.10596ZM12.1127 18.0787V24.2986H13.6127V18.0787H12.1127ZM1.35596 18.8287H12.8627V17.3287H1.35596V18.8287ZM12.1127 1.28516V7.50499H13.6127V1.28516H12.1127ZM12.1127 7.50499V18.0787H13.6127V7.50499H12.1127ZM23.6194 5.34634V7.50499H25.1194V5.34634H23.6194ZM23.6194 7.50499V20.2374H25.1194V7.50499H23.6194ZM12.8627 8.25499H24.3694V6.75499H12.8627V8.25499ZM5.41714 23.5486C3.58842 23.5486 2.10596 22.0661 2.10596 20.2374H0.605957C0.605957 22.8945 2.76 25.0486 5.41714 25.0486V23.5486ZM20.3082 25.0486C22.9653 25.0486 25.1194 22.8945 25.1194 20.2374H23.6194C23.6194 22.0661 22.1369 23.5486 20.3082 23.5486V25.0486ZM20.3082 2.03516C22.1369 2.03516 23.6194 3.51762 23.6194 5.34634H25.1194C25.1194 2.6892 22.9653 0.535156 20.3082 0.535156V2.03516ZM5.41715 0.535156C2.76 0.535156 0.605957 2.6892 0.605957 5.34635H2.10596C2.10596 3.51763 3.58843 2.03516 5.41715 2.03516V0.535156Z" fill="white"/>
</svg>
