<svg width="53" height="53" viewBox="0 0 53 53" fill="none" xmlns="http://www.w3.org/2000/svg">
<circle cx="26.5" cy="26.5" r="26.5" fill="#DB2734" fill-opacity="0.05"/>
<path d="M26.5 12C18.525 12 12 18.525 12 26.5C12 34.475 18.525 41 26.5 41C34.475 41 41 34.475 41 26.5C41 18.525 34.475 12 26.5 12ZM25.3607 18.2143H27.6393V29.6071H25.3607V18.2143ZM26.5 35.8214C25.6714 35.8214 24.9464 35.0964 24.9464 34.2679C24.9464 33.4393 25.6714 32.7143 26.5 32.7143C27.3286 32.7143 28.0536 33.4393 28.0536 34.2679C28.0536 35.0964 27.3286 35.8214 26.5 35.8214Z" fill="#DB2734"/>
</svg>
