<svg width="53" height="53" viewBox="0 0 53 53" fill="none" xmlns="http://www.w3.org/2000/svg">
<circle cx="26.5" cy="26.5" r="26.5" fill="#FFDD15" fill-opacity="0.05"/>
<path d="M40.6723 35.0844L28.903 13.4268C28.6687 12.9952 28.3223 12.6348 27.9002 12.3837C27.4782 12.1326 26.9962 12 26.5051 12C26.014 12 25.532 12.1326 25.1099 12.3837C24.6879 12.6348 24.3414 12.9952 24.1072 13.4268L12.3463 35.0844C12.1137 35.5009 11.9944 35.971 12.0002 36.4479C12.006 36.9249 12.1367 37.3919 12.3793 37.8026C12.622 38.2133 12.968 38.5531 13.383 38.7883C13.7979 39.0236 14.2673 39.1459 14.7442 39.1431H38.2744C38.7465 39.1426 39.2104 39.0196 39.6208 38.7862C40.0311 38.5527 40.3739 38.2168 40.6155 37.8112C40.8572 37.4056 40.9894 36.9443 40.9994 36.4722C41.0093 36.0002 40.8967 35.5337 40.6723 35.1183V35.0844ZM25.4205 18.8073C25.4205 18.4927 25.5455 18.191 25.768 17.9685C25.9904 17.7461 26.2921 17.6211 26.6068 17.6211C26.9214 17.6211 27.2231 17.7461 27.4456 17.9685C27.668 18.191 27.793 18.4927 27.793 18.8073V28.9752C27.793 29.2898 27.668 29.5916 27.4456 29.814C27.2231 30.0365 26.9214 30.1615 26.6068 30.1615C26.2921 30.1615 25.9904 30.0365 25.768 29.814C25.5455 29.5916 25.4205 29.2898 25.4205 28.9752V18.8073ZM26.6068 35.6267C26.3051 35.6267 26.0102 35.5373 25.7594 35.3697C25.5086 35.2021 25.3131 34.9639 25.1977 34.6852C25.0822 34.4065 25.052 34.0998 25.1109 33.804C25.1697 33.5081 25.315 33.2364 25.5283 33.0231C25.7416 32.8098 26.0134 32.6645 26.3092 32.6056C26.6051 32.5468 26.9117 32.577 27.1904 32.6924C27.4691 32.8079 27.7073 33.0034 27.8749 33.2542C28.0425 33.505 28.1319 33.7999 28.1319 34.1015C28.1319 34.3018 28.0925 34.5001 28.0158 34.6852C27.9392 34.8702 27.8269 35.0384 27.6852 35.18C27.5436 35.3216 27.3755 35.434 27.1904 35.5106C27.0054 35.5873 26.8071 35.6267 26.6068 35.6267Z" fill="#FFDD15"/>
</svg>
