<svg width="53" height="53" viewBox="0 0 53 53" fill="none" xmlns="http://www.w3.org/2000/svg">
<circle cx="26.5" cy="26.5" r="26.5" fill="#2DA76C" fill-opacity="0.05"/>
<path d="M26.5 12C30.3456 12 34.0338 13.5277 36.753 16.247C39.4723 18.9662 41 22.6544 41 26.5C41 30.3456 39.4723 34.0338 36.753 36.753C34.0338 39.4723 30.3456 41 26.5 41C22.6544 41 18.9662 39.4723 16.247 36.753C13.5277 34.0338 12 30.3456 12 26.5C12 22.6544 13.5277 18.9662 16.247 16.247C18.9662 13.5277 22.6544 12 26.5 12ZM24.6937 29.3606L21.4726 26.1375C21.3572 26.022 21.2201 25.9304 21.0692 25.8679C20.9183 25.8054 20.7566 25.7733 20.5933 25.7733C20.43 25.7733 20.2683 25.8054 20.1174 25.8679C19.9666 25.9304 19.8295 26.022 19.714 26.1375C19.4808 26.3707 19.3498 26.687 19.3498 27.0168C19.3498 27.3466 19.4808 27.6629 19.714 27.8961L23.8154 31.9976C23.9306 32.1136 24.0676 32.2057 24.2185 32.2686C24.3694 32.3315 24.5313 32.3638 24.6947 32.3638C24.8582 32.3638 25.0201 32.3315 25.171 32.2686C25.3219 32.2057 25.4589 32.1136 25.5741 31.9976L34.0669 23.5026C34.1839 23.3876 34.277 23.2506 34.3408 23.0995C34.4046 22.9483 34.4379 22.786 34.4386 22.622C34.4394 22.4579 34.4077 22.2953 34.3453 22.1436C34.2829 21.9918 34.1911 21.854 34.0751 21.7379C33.9592 21.6218 33.8214 21.5298 33.6698 21.4673C33.5181 21.4047 33.3555 21.3728 33.1915 21.3733C33.0274 21.3739 32.8651 21.407 32.7139 21.4706C32.5626 21.5342 32.4255 21.6271 32.3104 21.744L24.6937 29.3606Z" fill="#2DA76C"/>
</svg>
